<?xml version="1.0" encoding="UTF-8" standalone="no"?>
<svg width="203px" height="60px" viewBox="0 0 203 60" version="1.1" xmlns="http://www.w3.org/2000/svg" xmlns:xlink="http://www.w3.org/1999/xlink" xmlns:sketch="http://www.bohemiancoding.com/sketch/ns">
    <!-- Generator: Sketch 3.2.2 (9983) - http://www.bohemiancoding.com/sketch -->
    <title>Download_on_the_App_Store_Badge_US-UK_135x40</title>
    <desc>Created with Sketch.</desc>
    <defs></defs>
    <g id="Page-1" stroke="none" stroke-width="1" fill="none" fill-rule="evenodd" sketch:type="MSPage">
        <g id="Download_on_the_App_Store_Badge_US-UK_135x40" sketch:type="MSLayerGroup">
            <g id="Group" sketch:type="MSShapeGroup">
                <path d="M195.777711,60 L7.11101481,60 C3.19085926,60 0,56.808 0,52.9005 L0,7.089 C0,3.18 3.19085926,0 7.11101481,0 L195.777711,0 C199.696363,0 203,3.18 203,7.089 L203,52.9005 C203,56.808 199.696363,60 195.777711,60 L195.777711,60 L195.777711,60 Z" id="Shape" fill="#A6A6A6"></path>
                <path d="M201.544415,52.902 C201.544415,56.076 198.967067,58.647 195.779215,58.647 L7.11101481,58.647 C3.92466667,58.647 1.3382963,56.076 1.3382963,52.902 L1.3382963,7.0875 C1.3382963,3.915 3.92466667,1.335 7.11101481,1.335 L195.777711,1.335 C198.967067,1.335 201.542911,3.915 201.542911,7.0875 L201.544415,52.902 L201.544415,52.902 Z" id="Shape" fill="#000000"></path>
                <g id="Shape" fill="#FFFFFF">
                    <path d="M45.3035852,29.676 C45.2599778,24.8415 49.2718593,22.4895 49.4553111,22.38 C47.1832148,19.0755 43.6615407,18.624 42.4239926,18.588 C39.4662074,18.2775 36.5971407,20.3535 35.0904296,20.3535 C33.5536444,20.3535 31.2334296,18.618 28.7327704,18.669 C25.5148444,18.7185 22.5044296,20.577 20.853363,23.463 C17.4459704,29.3475 19.9872296,37.995 23.2517704,42.7515 C24.8847926,45.081 26.7929926,47.682 29.2906444,47.5905 C31.734163,47.49 32.6469111,46.0365 35.5956741,46.0365 C38.5173704,46.0365 39.3744815,47.5905 41.9217556,47.532 C44.5442148,47.49 46.1952815,45.192 47.771163,42.8415 C49.6583111,40.1715 50.4161778,37.542 50.4462519,37.407 C50.3846,37.386 45.3532074,35.4705 45.3035852,29.676 L45.3035852,29.676 Z"></path>
                    <path d="M40.4917333,15.459 C41.8059704,13.8195 42.7051852,11.589 42.4555704,9.3255 C40.5533852,9.4095 38.1745259,10.638 36.8046519,12.2415 C35.5926667,13.6545 34.51,15.9705 34.7896889,18.1485 C36.9264519,18.3075 39.1203556,17.073 40.4917333,15.459 L40.4917333,15.459 Z"></path>
                </g>
                <g id="Shape" fill="#FFFFFF">
                    <path d="M80.6661852,47.256 L77.2512741,47.256 L75.3806667,41.3925 L68.8786519,41.3925 L67.096763,47.256 L63.7720741,47.256 L70.2139407,27.294 L74.1927407,27.294 L80.6661852,47.256 L80.6661852,47.256 Z M74.8167778,38.9325 L73.1251111,33.72 C72.9461704,33.1875 72.6108444,31.9335 72.1161259,29.9595 L72.0559778,29.9595 C71.8589926,30.8085 71.5417111,32.0625 71.105637,33.72 L69.4440444,38.9325 L74.8167778,38.9325 L74.8167778,38.9325 Z"></path>
                    <path d="M97.2324889,39.882 C97.2324889,42.33 96.5693556,44.265 95.2430889,45.6855 C94.055163,46.95 92.5800296,47.5815 90.8191926,47.5815 C88.9185111,47.5815 87.5531481,46.9005 86.7216,45.5385 L86.6614519,45.5385 L86.6614519,53.121 L83.4555556,53.121 L83.4555556,37.6005 C83.4555556,36.0615 83.4149556,34.482 83.336763,32.862 L86.1562074,32.862 L86.3351481,35.1435 L86.3952963,35.1435 C87.4644296,33.4245 89.0869259,32.5665 91.2642889,32.5665 C92.9664815,32.5665 94.3874815,33.237 95.5242815,34.5795 C96.6640889,35.9235 97.2324889,37.6905 97.2324889,39.882 L97.2324889,39.882 Z M93.9664444,39.999 C93.9664444,38.598 93.6506667,37.443 93.0161037,36.534 C92.3228963,35.586 91.3921037,35.112 90.2252296,35.112 C89.4342815,35.112 88.7155111,35.376 88.0734296,35.8965 C87.4298444,36.4215 87.0088074,37.107 86.8118222,37.956 C86.7125778,38.352 86.6629556,38.676 86.6629556,38.931 L86.6629556,41.331 C86.6629556,42.378 86.9847481,43.2615 87.6283333,43.983 C88.2719185,44.7045 89.1079778,45.0645 90.1365111,45.0645 C91.3439852,45.0645 92.2838,44.5995 92.9559556,43.6725 C93.6296148,42.744 93.9664444,41.52 93.9664444,39.999 L93.9664444,39.999 Z"></path>
                    <path d="M113.828867,39.882 C113.828867,42.33 113.165733,44.265 111.837963,45.6855 C110.651541,46.95 109.176407,47.5815 107.41557,47.5815 C105.514889,47.5815 104.149526,46.9005 103.319481,45.5385 L103.259333,45.5385 L103.259333,53.121 L100.053437,53.121 L100.053437,37.6005 C100.053437,36.0615 100.012837,34.482 99.9346444,32.862 L102.754089,32.862 L102.93303,35.1435 L102.993178,35.1435 C104.060807,33.4245 105.683304,32.5665 107.86217,32.5665 C109.562859,32.5665 110.983859,33.237 112.123667,34.5795 C113.258963,35.9235 113.828867,37.6905 113.828867,39.882 L113.828867,39.882 Z M110.562822,39.999 C110.562822,38.598 110.245541,37.443 109.610978,36.534 C108.91777,35.586 107.989985,35.112 106.821607,35.112 C106.029156,35.112 105.311889,35.376 104.668304,35.8965 C104.024719,36.4215 103.605185,37.107 103.4082,37.956 C103.310459,38.352 103.259333,38.676 103.259333,38.931 L103.259333,41.331 C103.259333,42.378 103.581126,43.2615 104.221704,43.983 C104.865289,44.703 105.701348,45.0645 106.732889,45.0645 C107.940363,45.0645 108.880178,44.5995 109.552333,43.6725 C110.225993,42.744 110.562822,41.52 110.562822,39.999 L110.562822,39.999 Z"></path>
                    <path d="M132.38457,41.658 C132.38457,43.356 131.793615,44.7375 130.607193,45.804 C129.303481,46.9695 127.488511,47.5515 125.156267,47.5515 C123.002963,47.5515 121.276711,47.1375 119.969993,46.308 L120.712822,43.6425 C122.120289,44.4915 123.664593,44.9175 125.347237,44.9175 C126.554711,44.9175 127.494526,44.6445 128.169689,44.1015 C128.841844,43.5585 129.17717,42.8295 129.17717,41.9205 C129.17717,41.1105 128.900489,40.428 128.345622,39.8745 C127.793763,39.321 126.871993,38.8065 125.584822,38.331 C122.081193,37.0275 120.330881,35.118 120.330881,32.607 C120.330881,30.966 120.944393,29.6205 122.172919,28.5735 C123.396933,27.525 125.029956,27.0015 127.071985,27.0015 C128.89297,27.0015 130.405696,27.318 131.61317,27.9495 L130.811696,30.5565 C129.683919,29.9445 128.408778,29.6385 126.981763,29.6385 C125.853985,29.6385 124.972815,29.916 124.341259,30.468 C123.807444,30.9615 123.539785,31.563 123.539785,32.2755 C123.539785,33.0645 123.845037,33.717 124.458548,34.23 C124.992363,34.704 125.962252,35.217 127.369719,35.7705 C129.091459,36.462 130.356074,37.2705 131.169578,38.1975 C131.980074,39.1215 132.38457,40.278 132.38457,41.658 L132.38457,41.658 Z"></path>
                    <path d="M142.984178,35.262 L139.450474,35.262 L139.450474,42.2505 C139.450474,44.028 140.073007,44.916 141.321081,44.916 C141.893993,44.916 142.369163,44.8665 142.745089,44.7675 L142.833807,47.196 C142.202252,47.4315 141.370704,47.55 140.340667,47.55 C139.074548,47.55 138.085111,47.1645 137.370852,46.395 C136.6596,45.624 136.301719,44.331 136.301719,42.5145 L136.301719,35.259 L134.196533,35.259 L134.196533,32.859 L136.301719,32.859 L136.301719,30.2235 L139.450474,29.2755 L139.450474,32.859 L142.984178,32.859 L142.984178,35.262 L142.984178,35.262 Z"></path>
                    <path d="M158.927948,39.9405 C158.927948,42.153 158.293385,43.9695 157.027267,45.39 C155.699496,46.8525 153.937156,47.5815 151.740244,47.5815 C149.62303,47.5815 147.937378,46.881 146.680281,45.48 C145.423185,44.079 144.794637,42.3105 144.794637,40.179 C144.794637,37.9485 145.44123,36.1215 146.738926,34.701 C148.033615,33.279 149.780919,32.568 151.97783,32.568 C154.095044,32.568 155.798741,33.2685 157.084407,34.671 C158.314437,36.0315 158.927948,37.788 158.927948,39.9405 L158.927948,39.9405 Z M155.601756,40.044 C155.601756,38.7165 155.317556,37.578 154.741637,36.6285 C154.069481,35.4795 153.108615,34.9065 151.863548,34.9065 C150.574874,34.9065 149.595963,35.481 148.923807,36.6285 C148.347889,37.5795 148.063689,38.736 148.063689,40.104 C148.063689,41.4315 148.347889,42.57 148.923807,43.518 C149.617015,44.667 150.5854,45.24 151.834978,45.24 C153.058993,45.24 154.019859,44.655 154.713067,43.488 C155.304022,42.5205 155.601756,41.37 155.601756,40.044 L155.601756,40.044 Z"></path>
                    <path d="M169.348615,35.6745 C169.031333,35.616 168.693,35.586 168.338126,35.586 C167.210348,35.586 166.3382,36.0105 165.724689,36.861 C165.190874,37.611 164.923215,38.559 164.923215,39.7035 L164.923215,47.256 L161.718822,47.256 L161.748896,37.395 C161.748896,35.736 161.708296,34.2255 161.6286,32.8635 L164.420978,32.8635 L164.538267,35.6175 L164.626985,35.6175 C164.965319,34.671 165.499133,33.909 166.229933,33.3375 C166.944193,32.823 167.715593,32.5665 168.547141,32.5665 C168.84337,32.5665 169.11103,32.5875 169.348615,32.625 L169.348615,35.6745 L169.348615,35.6745 Z"></path>
                    <path d="M183.68643,39.378 C183.68643,39.951 183.648837,40.434 183.569141,40.8285 L173.951452,40.8285 C173.989044,42.2505 174.453689,43.338 175.346889,44.088 C176.157385,44.7585 177.205467,45.0945 178.492637,45.0945 C179.916644,45.0945 181.215844,44.868 182.384222,44.4135 L182.886459,46.6335 C181.521096,47.2275 179.909126,47.523 178.049044,47.523 C175.811533,47.523 174.055207,46.866 172.777059,45.5535 C171.501919,44.241 170.862844,42.4785 170.862844,40.2675 C170.862844,38.097 171.456807,36.2895 172.646237,34.848 C173.891304,33.309 175.573948,32.5395 177.691163,32.5395 C179.770785,32.5395 181.345163,33.309 182.414296,34.848 C183.260881,36.0705 183.68643,37.5825 183.68643,39.378 L183.68643,39.378 Z M180.6294,38.5485 C180.650452,37.6005 180.441437,36.7815 180.006867,36.09 C179.452,35.2005 178.5994,34.7565 177.452074,34.7565 C176.403993,34.7565 175.551393,35.19 174.900289,36.06 C174.366474,36.7515 174.049193,37.581 173.951452,38.547 L180.6294,38.547 L180.6294,38.5485 Z"></path>
                </g>
                <g id="Shape" fill="#FFFFFF">
                    <path d="M73.7566667,15.0135 C73.7566667,16.779 73.2258593,18.108 72.1657481,19.0005 C71.1838296,19.824 69.7883926,20.2365 67.9809407,20.2365 C67.0847333,20.2365 66.3178444,20.1975 65.675763,20.1195 L65.675763,10.473 C66.5133259,10.338 67.4155481,10.269 68.3899481,10.269 C70.1116889,10.269 71.4093852,10.6425 72.2845407,11.3895 C73.2649556,12.234 73.7566667,13.4415 73.7566667,15.0135 L73.7566667,15.0135 Z M72.0950741,15.057 C72.0950741,13.9125 71.7913259,13.035 71.1838296,12.423 C70.5763333,11.8125 69.6891481,11.5065 68.5207704,11.5065 C68.0245481,11.5065 67.6020074,11.5395 67.2516444,11.6085 L67.2516444,18.942 C67.4456222,18.972 67.8004963,18.9855 68.3162667,18.9855 C69.522237,18.9855 70.4530296,18.651 71.1086444,17.982 C71.7642593,17.313 72.0950741,16.338 72.0950741,15.057 L72.0950741,15.057 Z"></path>
                    <path d="M82.5668667,16.5555 C82.5668667,17.643 82.2556,18.534 81.6330667,19.233 C80.9804593,19.9515 80.1158296,20.31 79.0361704,20.31 C77.9956074,20.31 77.1670667,19.9665 76.5490444,19.2765 C75.9325259,18.588 75.6242667,17.7195 75.6242667,16.6725 C75.6242667,15.5775 75.9415481,14.679 76.5791185,13.9815 C77.2166889,13.284 78.0738,12.9345 79.1534593,12.9345 C80.1940222,12.9345 81.0300815,13.278 81.6631407,13.9665 C82.2646222,14.6355 82.5668667,15.4995 82.5668667,16.5555 L82.5668667,16.5555 Z M80.9323407,16.6065 C80.9323407,15.954 80.7909926,15.3945 80.5098,14.928 C80.1789852,14.364 79.7083259,14.082 79.0963185,14.082 C78.4632593,14.082 77.9820741,14.364 77.6512593,14.928 C77.368563,15.3945 77.2287185,15.963 77.2287185,16.635 C77.2287185,17.2875 77.3700667,17.847 77.6512593,18.3135 C77.9926,18.8775 78.4677704,19.1595 79.0812815,19.1595 C79.682763,19.1595 80.1549259,18.873 80.494763,18.2985 C80.7864815,17.823 80.9323407,17.259 80.9323407,16.6065 L80.9323407,16.6065 Z"></path>
                    <path d="M94.379963,13.0785 L92.162,20.1495 L90.7184444,20.1495 L89.7996815,17.079 C89.5666074,16.3125 89.3771407,15.5505 89.2297778,14.7945 L89.2012074,14.7945 C89.0643704,15.5715 88.8749037,16.332 88.6313037,17.079 L87.6554,20.1495 L86.1953037,20.1495 L84.1096667,13.0785 L85.7291556,13.0785 L86.5306296,16.44 C86.7246074,17.235 86.884,17.9925 87.0118148,18.7095 L87.0403852,18.7095 C87.1576741,18.1185 87.3516519,17.3655 87.6253259,16.455 L88.6313037,13.08 L89.9154667,13.08 L90.8793407,16.383 C91.1124148,17.1885 91.3018815,17.964 91.4477407,18.711 L91.4913481,18.711 C91.5981111,17.9835 91.7590074,17.208 91.9725333,16.383 L92.8326519,13.08 L94.379963,13.08 L94.379963,13.0785 Z"></path>
                    <path d="M102.549585,20.1495 L100.973704,20.1495 L100.973704,16.0995 C100.973704,14.8515 100.498533,14.2275 99.5451852,14.2275 C99.0775333,14.2275 98.7001037,14.3985 98.4068815,14.742 C98.1166667,15.0855 97.9693037,15.4905 97.9693037,15.954 L97.9693037,20.148 L96.3934222,20.148 L96.3934222,15.099 C96.3934222,14.478 96.3738741,13.8045 96.3362815,13.0755 L97.7211926,13.0755 L97.7948741,14.181 L97.8384815,14.181 C98.0219333,13.8375 98.2956074,13.554 98.6549926,13.3275 C99.0820444,13.0635 99.5602222,12.93 100.083511,12.93 C100.745141,12.93 101.295496,13.143 101.733074,13.5705 C102.277415,14.094 102.549585,14.8755 102.549585,15.9135 L102.549585,20.1495 L102.549585,20.1495 Z"></path>
                    <path d="M106.895289,20.1495 L105.320911,20.1495 L105.320911,9.834 L106.895289,9.834 L106.895289,20.1495 L106.895289,20.1495 Z"></path>
                    <path d="M116.173141,16.5555 C116.173141,17.643 115.861874,18.534 115.239341,19.233 C114.586733,19.9515 113.7206,20.31 112.642444,20.31 C111.600378,20.31 110.771837,19.9665 110.155319,19.2765 C109.5388,18.588 109.230541,17.7195 109.230541,16.6725 C109.230541,15.5775 109.547822,14.679 110.185393,13.9815 C110.822963,13.284 111.680074,12.9345 112.75823,12.9345 C113.800296,12.9345 114.634852,13.278 115.269415,13.9665 C115.870896,14.6355 116.173141,15.4995 116.173141,16.5555 L116.173141,16.5555 Z M114.537111,16.6065 C114.537111,15.954 114.395763,15.3945 114.11457,14.928 C113.785259,14.364 113.313096,14.082 112.702593,14.082 C112.06803,14.082 111.586844,14.364 111.257533,14.928 C110.974837,15.3945 110.834993,15.963 110.834993,16.635 C110.834993,17.2875 110.976341,17.847 111.257533,18.3135 C111.598874,18.8775 112.074044,19.1595 112.687556,19.1595 C113.289037,19.1595 113.759696,18.873 114.099533,18.2985 C114.392756,17.823 114.537111,17.259 114.537111,16.6065 L114.537111,16.6065 Z"></path>
                    <path d="M123.799926,20.1495 L122.384941,20.1495 L122.267652,19.335 L122.224044,19.335 C121.739852,19.9845 121.049652,20.31 120.153444,20.31 C119.484296,20.31 118.942963,20.0955 118.535459,19.6695 C118.165548,19.2825 117.980593,18.801 117.980593,18.2295 C117.980593,17.3655 118.341481,16.707 119.06777,16.251 C119.792556,15.795 120.812067,15.5715 122.1248,15.582 L122.1248,15.45 C122.1248,14.5185 121.634593,14.0535 120.652674,14.0535 C119.953452,14.0535 119.336933,14.229 118.804622,14.577 L118.484333,13.545 C119.142956,13.1385 119.956459,12.9345 120.915822,12.9345 C122.768385,12.9345 123.697674,13.9095 123.697674,15.8595 L123.697674,18.4635 C123.697674,19.17 123.732259,19.7325 123.799926,20.1495 L123.799926,20.1495 Z M122.163896,17.7195 L122.163896,16.629 C120.425615,16.599 119.556474,17.0745 119.556474,18.054 C119.556474,18.423 119.655719,18.699 119.858719,18.8835 C120.061719,19.068 120.320356,19.1595 120.628615,19.1595 C120.974467,19.1595 121.297763,19.05 121.592489,18.8325 C121.888719,18.6135 122.070667,18.336 122.138333,17.9955 C122.154874,17.919 122.163896,17.826 122.163896,17.7195 L122.163896,17.7195 Z"></path>
                    <path d="M132.754481,20.1495 L131.356037,20.1495 L131.282356,19.014 L131.238748,19.014 C130.792148,19.878 130.031274,20.31 128.962141,20.31 C128.108037,20.31 127.396785,19.9755 126.832896,19.3065 C126.269007,18.6375 125.987815,17.769 125.987815,16.7025 C125.987815,15.558 126.293067,14.631 126.906578,13.923 C127.500541,13.263 128.228333,12.933 129.094467,12.933 C130.046311,12.933 130.712452,13.2525 131.091385,13.893 L131.121459,13.893 L131.121459,9.834 L132.698844,9.834 L132.698844,18.2445 C132.698844,18.933 132.716889,19.5675 132.754481,20.1495 L132.754481,20.1495 Z M131.121459,17.1675 L131.121459,15.9885 C131.121459,15.7845 131.106422,15.6195 131.077852,15.4935 C130.989133,15.1155 130.798163,14.7975 130.507948,14.541 C130.214726,14.2845 129.861356,14.1555 129.453852,14.1555 C128.865904,14.1555 128.40577,14.388 128.067437,14.8545 C127.732111,15.321 127.562193,15.9165 127.562193,16.644 C127.562193,17.343 127.723089,17.91 128.046385,18.3465 C128.387726,18.8115 128.847859,19.044 129.423778,19.044 C129.941052,19.044 130.35457,18.8505 130.668844,18.462 C130.972593,18.1035 131.121459,17.6715 131.121459,17.1675 L131.121459,17.1675 Z"></path>
                    <path d="M146.232178,16.5555 C146.232178,17.643 145.920911,18.534 145.298378,19.233 C144.64577,19.9515 143.782644,20.31 142.701481,20.31 C141.662422,20.31 140.833881,19.9665 140.214356,19.2765 C139.597837,18.588 139.289578,17.7195 139.289578,16.6725 C139.289578,15.5775 139.606859,14.679 140.24443,13.9815 C140.882,13.284 141.739111,12.9345 142.820274,12.9345 C143.859333,12.9345 144.696896,13.278 145.328452,13.9665 C145.929933,14.6355 146.232178,15.4995 146.232178,16.5555 L146.232178,16.5555 Z M144.599156,16.6065 C144.599156,15.954 144.457807,15.3945 144.176615,14.928 C143.844296,14.364 143.375141,14.082 142.76163,14.082 C142.130074,14.082 141.648889,14.364 141.31657,14.928 C141.033874,15.3945 140.89403,15.963 140.89403,16.635 C140.89403,17.2875 141.035378,17.847 141.31657,18.3135 C141.657911,18.8775 142.133081,19.1595 142.746593,19.1595 C143.348074,19.1595 143.821741,18.873 144.161578,18.2985 C144.451793,17.823 144.599156,17.259 144.599156,16.6065 L144.599156,16.6065 Z"></path>
                    <path d="M154.705548,20.1495 L153.13117,20.1495 L153.13117,16.0995 C153.13117,14.8515 152.656,14.2275 151.701148,14.2275 C151.233496,14.2275 150.856067,14.3985 150.564348,14.742 C150.27263,15.0855 150.12677,15.4905 150.12677,15.954 L150.12677,20.148 L148.549385,20.148 L148.549385,15.099 C148.549385,14.478 148.531341,13.8045 148.493748,13.0755 L149.877156,13.0755 L149.950837,14.181 L149.994444,14.181 C150.1794,13.8375 150.453074,13.554 150.810956,13.3275 C151.239511,13.0635 151.716185,12.93 152.240978,12.93 C152.901104,12.93 153.451459,13.143 153.889037,13.5705 C154.434881,14.094 154.705548,14.8755 154.705548,15.9135 L154.705548,20.1495 L154.705548,20.1495 Z"></path>
                    <path d="M165.31117,14.256 L163.575896,14.256 L163.575896,17.691 C163.575896,18.564 163.884156,19.0005 164.494659,19.0005 C164.777356,19.0005 165.011933,18.9765 165.196889,18.927 L165.237489,20.1195 C164.926222,20.2365 164.517215,20.295 164.013474,20.295 C163.390941,20.295 162.906748,20.106 162.556385,19.728 C162.204519,19.35 162.030089,18.714 162.030089,17.8215 L162.030089,14.256 L160.994037,14.256 L160.994037,13.0785 L162.030089,13.0785 L162.030089,11.7825 L163.574393,11.3175 L163.574393,13.077 L165.309667,13.077 L165.309667,14.256 L165.31117,14.256 Z"></path>
                    <path d="M173.653719,20.1495 L172.076333,20.1495 L172.076333,16.1295 C172.076333,14.862 171.601163,14.2275 170.649319,14.2275 C169.918519,14.2275 169.419289,14.595 169.145615,15.33 C169.099,15.4845 169.071933,15.6735 169.071933,15.8955 L169.071933,20.148 L167.497556,20.148 L167.497556,9.834 L169.071933,9.834 L169.071933,14.0955 L169.102007,14.0955 C169.59823,13.32 170.309481,12.933 171.231252,12.933 C171.883859,12.933 172.423689,13.146 172.852244,13.5735 C173.386059,14.106 173.653719,14.898 173.653719,15.945 L173.653719,20.1495 L173.653719,20.1495 Z"></path>
                    <path d="M182.259415,16.2795 C182.259415,16.5615 182.238363,16.7985 182.20077,16.992 L177.47463,16.992 C177.495681,17.691 177.721237,18.2235 178.158815,18.5925 C178.5588,18.9225 179.07457,19.0875 179.706126,19.0875 C180.405348,19.0875 181.042919,18.9765 181.617333,18.753 L181.863941,19.845 C181.191785,20.136 180.400837,20.2815 179.485081,20.2815 C178.387378,20.2815 177.522748,19.959 176.897207,19.314 C176.268659,18.669 175.957393,17.8035 175.957393,16.7175 C175.957393,15.651 176.247607,14.763 176.832548,14.055 C177.443052,13.299 178.268585,12.921 179.310652,12.921 C180.330163,12.921 181.10457,13.299 181.627859,14.055 C182.0504,14.655 182.259415,15.3975 182.259415,16.2795 L182.259415,16.2795 Z M180.755711,15.873 C180.767741,15.4065 180.663985,15.0045 180.450459,14.6655 C180.176785,14.229 179.760259,14.01 179.19637,14.01 C178.682104,14.01 178.26257,14.223 177.942281,14.6505 C177.680637,14.991 177.525756,15.3975 177.47463,15.873 L180.755711,15.873 L180.755711,15.873 Z"></path>
                </g>
            </g>
        </g>
    </g>
</svg>